<svg version="1.1" id="Layer_1" xmlns="http://www.w3.org/2000/svg" xmlns:xlink="http://www.w3.org/1999/xlink" x="0px" y="0px"
	 width="100%" viewBox="0 0 512 512" enable-background="new 0 0 512 512" xml:space="preserve">
<path fill="#7BC5DD" opacity="1.000000" stroke="none"
	d="
M169.919708,300.891205
	C186.303177,281.728851 202.655823,262.540039 219.081070,243.413544
	C229.820297,230.908157 240.646088,218.476883 251.467804,206.042618
	C260.887360,195.219391 270.355530,184.438477 280.300385,173.283035
	C281.231903,172.695114 281.774231,172.560852 282.083008,172.216904
	C298.778534,153.621033 315.332977,134.896805 332.174530,116.434448
	C343.567719,103.944832 355.373383,91.831764 366.954468,79.512596
	C367.827179,78.584259 368.378296,77.353531 369.361511,76.068802
	C375.677856,69.501625 381.513977,62.925858 387.799042,56.811600
	C394.542419,50.251514 401.307312,43.597172 408.779816,37.929237
	C421.069580,28.607401 433.557678,19.425428 446.705688,11.403117
	C454.391571,6.713543 463.520355,4.388693 472.000000,1.000004
	C477.688049,1.000000 483.376068,1.000000 489.706268,1.306729
	C491.917542,2.139389 493.486633,2.665320 495.051514,3.583752
	C495.519104,10.688109 496.960693,17.502514 496.264008,24.090801
	C494.743408,38.470104 487.489563,50.768673 479.822296,62.669594
	C463.763977,87.594742 443.100159,108.424370 421.339081,128.322174
	C406.865845,141.556183 392.915680,155.360764 378.644470,168.817825
	C369.582214,177.363098 360.457520,185.847366 351.187958,194.166382
	C336.991241,206.907288 322.657898,219.496170 308.358368,232.122162
	C299.902649,239.588242 291.459381,247.070206 282.906097,254.423553
	C267.318695,267.824188 251.647385,281.127258 236.022873,294.484772
	C223.923538,304.828583 211.889359,315.249146 199.740387,325.534210
	C185.699570,337.420929 171.682739,349.341705 157.412582,360.949036
	C151.681488,365.610718 146.891098,372.588745 137.854111,371.027161
	C134.343246,367.545441 130.832367,364.063721 127.164261,359.864716
	C127.764641,356.184509 127.668808,352.529236 129.419189,350.371735
	C140.283691,336.980316 151.603622,323.959473 162.673691,310.733002
	C165.283325,307.615051 167.514450,304.180237 169.919708,300.891205
z"/>
<path fill="#A7D9E9" opacity="1.000000" stroke="none"
	d="
M369.078918,76.263359
	C368.378296,77.353531 367.827179,78.584259 366.954468,79.512596
	C355.373383,91.831764 343.567719,103.944832 332.174530,116.434448
	C315.332977,134.896805 298.778534,153.621033 282.083008,172.216904
	C281.774231,172.560852 281.231903,172.695114 280.468109,172.989883
	C270.775055,166.041931 261.471130,158.951187 252.038071,152.036591
	C229.271545,135.348343 206.429123,118.763672 183.646622,102.097153
	C161.795242,86.111809 139.993927,70.058052 118.142990,54.072105
	C110.550537,48.517532 102.851570,43.108715 95.245369,37.572701
	C88.735207,32.834415 88.377029,27.148756 94.150192,21.355051
	C99.670006,15.815580 105.153999,10.238413 110.774712,4.802910
	C112.148590,3.474295 113.995331,2.634640 115.812332,1.285086
	C117.066673,1.000000 118.133339,1.000000 119.814529,1.299976
	C147.908600,9.714967 175.388153,17.829983 203.057053,26.272068
	C209.751511,28.726982 216.210846,31.011097 222.776062,32.933701
	C228.121704,34.499153 233.594070,35.631786 239.390991,37.004189
	C247.877274,39.408665 255.982819,41.765305 264.275146,44.410591
	C268.807373,46.200981 273.086578,47.946430 277.513000,49.150604
	C285.251038,51.255669 293.079559,53.028042 301.107727,55.239166
	C313.686584,59.248322 326.040955,62.915417 338.365143,66.681183
	C348.621460,69.815071 358.842316,73.064880 369.078918,76.263359
z"/>
<path fill="#A7D9E9" opacity="1.000000" stroke="none"
	d="
M513.000000,397.625000
	C507.788910,403.711060 502.595673,409.438599 497.355865,415.123199
	C495.778473,416.834412 494.079773,418.434540 492.422455,420.071167
	C486.907562,425.517181 481.064728,425.129578 476.493988,418.853088
	C451.813080,384.961395 427.224091,351.002594 402.498810,317.143341
	C383.028748,290.480713 363.407379,263.928497 343.852386,237.327881
	C343.073669,236.268631 342.286407,235.215668 341.273682,233.671509
	C351.401642,223.881577 361.878998,214.709473 372.091125,205.250977
	C392.822021,186.050003 413.403595,166.687866 434.072815,147.420120
	C435.135986,146.429047 436.443329,145.699905 437.862305,145.176605
	C441.719543,157.269699 445.340118,169.038559 448.986816,180.799301
	C452.329834,191.580750 455.701080,202.353439 459.021973,213.539246
	C460.808411,221.266342 462.416107,228.647598 464.533722,235.879562
	C465.936310,240.669525 468.069763,245.245468 469.921509,250.319672
	C472.325897,258.811432 474.684814,266.900726 477.024841,275.407288
	C477.009430,276.323242 476.898315,276.855530 477.033142,277.315704
	C480.231842,288.232758 483.448395,299.144684 486.713806,310.041840
	C486.825836,310.415649 487.476379,310.628052 487.920898,311.312317
	C493.130890,329.110840 498.262634,346.522675 503.473511,363.910767
	C506.584900,374.293060 509.820343,384.638184 513.000000,395.000000
	C513.000000,395.750000 513.000000,396.500000 513.000000,397.625000
z"/>
<path fill="#51B2D2" opacity="1.000000" stroke="none"
	d="
M437.636993,144.848831
	C436.443329,145.699905 435.135986,146.429047 434.072815,147.420120
	C413.403595,166.687866 392.822021,186.050003 372.091125,205.250977
	C361.878998,214.709473 351.401642,223.881577 340.960815,233.508301
	C326.509155,246.440277 312.210388,259.127411 297.755463,271.634125
	C279.085419,287.787872 260.295837,303.803497 241.547287,319.866455
	C232.047623,328.005371 222.525055,336.117493 212.457550,344.544281
	C211.295013,345.097900 210.577347,345.216980 210.096573,345.619202
	C195.240753,358.047852 180.276031,370.352386 165.665451,383.063782
	C162.045471,386.213196 158.390381,387.336792 153.934845,387.096130
	C148.688461,381.934692 143.442062,376.773285 138.024902,371.319519
	C146.891098,372.588745 151.681488,365.610718 157.412582,360.949036
	C171.682739,349.341705 185.699570,337.420929 199.740387,325.534210
	C211.889359,315.249146 223.923538,304.828583 236.022873,294.484772
	C251.647385,281.127258 267.318695,267.824188 282.906097,254.423553
	C291.459381,247.070206 299.902649,239.588242 308.358368,232.122162
	C322.657898,219.496170 336.991241,206.907288 351.187958,194.166382
	C360.457520,185.847366 369.582214,177.363098 378.644470,168.817825
	C392.915680,155.360764 406.865845,141.556183 421.339081,128.322174
	C443.100159,108.424370 463.763977,87.594742 479.822296,62.669594
	C487.489563,50.768673 494.743408,38.470104 496.264008,24.090801
	C496.960693,17.502514 495.519104,10.688109 495.381165,3.659415
	C499.578522,6.513928 503.933105,9.261119 507.152283,12.988806
	C509.800629,16.055475 511.101807,20.285538 513.000000,23.999996
	C513.000000,29.354929 513.000000,34.709858 512.655884,40.718571
	C511.177704,45.639553 510.471191,50.078350 508.838715,54.145466
	C499.818207,76.618423 485.438812,95.600662 469.139587,113.150322
	C459.007843,124.059319 448.162201,134.305283 437.636993,144.848831
z"/>
<path fill="#FFDC75" opacity="1.000000" stroke="none"
	d="
M1.000000,119.444168
	C21.820049,98.014130 42.584332,76.972206 63.538872,56.121502
	C65.857262,53.814602 69.101303,51.749401 72.216766,51.159004
	C74.535904,50.719517 77.948074,52.220001 79.773041,53.990639
	C81.947739,56.100613 83.091377,59.404591 80.747749,62.566719
	C79.671959,64.018227 78.791069,65.657974 77.530968,66.922554
	C57.331070,87.194183 37.041878,107.376991 16.877348,127.683617
	C11.770865,132.826080 4.756298,133.509064 1.307440,127.165604
	C1.000000,124.629440 1.000000,122.258888 1.000000,119.444168
z"/>
<path fill="#FFDC75" opacity="1.000000" stroke="none"
	d="
M391.444153,513.000000
	C384.691589,508.040192 384.402618,503.109192 390.129669,497.378021
	C410.704529,476.788422 431.311493,456.230865 451.849213,435.604340
	C455.124939,432.314423 458.719421,431.123230 462.988190,433.123779
	C466.998383,435.003143 467.501678,438.756134 466.862427,442.451385
	C466.535431,444.341522 465.121735,446.282166 463.705078,447.709534
	C442.264374,469.312988 420.741608,490.834900 399.119019,512.687988
	C396.629425,513.000000 394.258881,513.000000 391.444153,513.000000
z"/>
<path fill="#FFFFFF" opacity="1.000000" stroke="none"
	d="
M513.000000,23.531261
	C511.101807,20.285538 509.800629,16.055475 507.152283,12.988806
	C503.933105,9.261119 499.578522,6.513928 495.385437,3.266914
	C493.486633,2.665320 491.917542,2.139389 490.174194,1.306729
	C497.592957,1.000000 505.185913,1.000000 513.000000,1.000000
	C513.000000,8.352704 513.000000,15.707616 513.000000,23.531261
z"/>
<path fill="#A7D9E9" opacity="1.000000" stroke="none"
	d="
M169.551971,300.895966
	C167.514450,304.180237 165.283325,307.615051 162.673691,310.733002
	C151.603622,323.959473 140.283691,336.980316 129.419189,350.371735
	C127.668808,352.529236 127.764641,356.184509 127.002365,359.575195
	C114.816010,347.986115 102.631042,335.972626 90.455269,323.949799
	C87.852112,321.379364 85.209854,318.842651 82.717476,316.167572
	C80.172409,313.435944 80.111443,308.494415 82.726814,305.833801
	C90.653618,297.769867 98.676949,289.800446 106.698219,281.829956
	C109.987419,278.561615 113.841347,279.692383 117.380630,281.029999
	C132.828400,286.868378 148.204620,292.896088 163.610336,298.845917
	C165.457352,299.559204 167.325760,300.217133 169.551971,300.895966
z"/>
<path fill="#A7D9E9" opacity="1.000000" stroke="none"
	d="
M154.098969,387.382019
	C158.390381,387.336792 162.045471,386.213196 165.665451,383.063782
	C180.276031,370.352386 195.240753,358.047852 210.096573,345.619202
	C210.577347,345.216980 211.295013,345.097900 212.229568,344.799561
	C217.060135,356.106293 221.589645,367.450043 226.055954,378.818573
	C228.412491,384.816925 230.563858,390.897156 232.986115,396.868073
	C234.800903,401.341522 234.395813,405.186676 230.850845,408.678619
	C223.738876,415.684143 216.757187,422.821899 209.643250,429.825348
	C205.040512,434.356598 200.870377,434.328857 196.229385,429.702271
	C182.207550,415.723999 168.247345,401.683899 154.098969,387.382019
z"/>
<path fill="#FFDC75" opacity="1.000000" stroke="none"
	d="
M430.794861,400.931976
	C436.321503,405.726410 436.652161,410.776001 431.872742,415.590576
	C419.102112,428.455292 406.276489,441.265717 393.416595,454.041290
	C389.815918,457.618317 383.779510,458.083771 380.843323,455.232971
	C376.918854,451.422577 377.074280,446.455109 381.395874,442.116974
	C394.306549,429.156769 407.274536,416.253662 420.182556,403.290833
	C423.131592,400.329285 426.332123,398.859711 430.794861,400.931976
z"/>
<path fill="#FFDC75" opacity="1.000000" stroke="none"
	d="
M107.257957,101.242165
	C95.474571,113.023186 83.950493,124.559883 72.408501,136.078629
	C67.964470,140.513702 62.882118,141.140152 59.289562,137.753891
	C55.746704,134.414474 56.210835,128.312561 60.442921,124.066254
	C72.776131,111.691620 85.141479,99.348999 97.505142,87.004761
	C102.135834,82.381348 107.942802,81.602196 111.546532,85.079941
	C115.404892,88.803429 114.715004,93.766533 109.628349,98.873314
	C108.923813,99.580635 108.216270,100.284966 107.257957,101.242165
z"/>
<path fill="#FFDC75" opacity="1.000000" stroke="none"
	d="
M109.012779,143.827209
	C109.913696,141.209030 110.278458,138.467270 111.823166,136.858505
	C120.584404,127.733978 129.593674,118.845810 138.591934,109.951485
	C142.286377,106.299713 147.693146,105.887840 151.196030,108.758041
	C154.709518,111.636925 155.494736,117.197151 151.805511,121.154892
	C142.735428,130.885117 133.506958,140.526230 123.663658,149.455170
	C117.806732,154.768036 111.945396,152.210175 109.012779,143.827209
z"/>
<path fill="#FFDC75" opacity="1.000000" stroke="none"
	d="
M406.769348,360.919739
	C412.031921,365.436005 412.904846,370.006897 408.461487,374.765381
	C399.619751,384.234192 390.391785,393.361237 380.998444,402.287476
	C376.724945,406.348480 372.431000,405.939636 368.741364,402.238647
	C365.093018,398.579132 364.704865,394.245117 368.827087,389.884033
	C377.613831,380.588196 386.760010,371.624603 395.948669,362.720673
	C398.794006,359.963470 402.427856,358.816711 406.769348,360.919739
z"/>
<path fill="#A89E9F" opacity="1.000000" stroke="none"
	d="
M264.275146,44.410591
	C267.771881,40.534191 271.483826,36.975124 275.133087,33.352886
	C283.479279,25.068533 293.640076,25.230024 301.380646,33.909397
	C304.980225,37.945526 307.156494,46.187855 301.046112,54.623505
	C293.079559,53.028042 285.251038,51.255669 277.513000,49.150604
	C273.086578,47.946430 268.807373,46.200981 264.275146,44.410591
z"/>
<path fill="#A89E9F" opacity="1.000000" stroke="none"
	d="
M203.057053,26.272068
	C207.064697,21.972231 211.180161,17.908710 215.477341,14.047453
	C222.333832,7.886522 230.596802,9.807567 236.291779,13.922139
	C242.314194,18.273277 243.803955,27.192879 240.177719,34.522388
	C239.885376,35.113277 239.575668,35.695572 239.142151,36.619102
	C233.594070,35.631786 228.121704,34.499153 222.776062,32.933701
	C216.210846,31.011097 209.751511,28.726982 203.057053,26.272068
z"/>
<path fill="#A89E9F" opacity="1.000000" stroke="none"
	d="
M459.021973,213.539246
	C467.098999,206.983887 475.850830,207.647812 482.403168,214.900818
	C488.324341,221.455124 487.766510,231.674408 481.113708,238.381805
	C477.485626,242.039688 473.846436,245.686508 470.044128,249.627747
	C468.069763,245.245468 465.936310,240.669525 464.533722,235.879562
	C462.416107,228.647598 460.808411,221.266342 459.021973,213.539246
z"/>
<path fill="#A89E9F" opacity="1.000000" stroke="none"
	d="
M477.024841,275.407288
	C483.077057,270.904694 492.353546,270.894684 497.436646,274.968018
	C502.821472,279.283142 505.324158,287.882477 502.566376,294.614258
	C501.554077,297.085327 499.244843,299.081512 497.337402,301.116394
	C494.381134,304.270081 491.262207,307.271240 488.044067,310.626343
	C487.476379,310.628052 486.825836,310.415649 486.713806,310.041840
	C483.448395,299.144684 480.231842,288.232758 477.033142,277.315704
	C476.898315,276.855530 477.009430,276.323242 477.024841,275.407288
z"/>
</svg>
